<?xml version="1.0" encoding="utf-8"?>
<!-- Generator: Adobe Illustrator 19.0.0, SVG Export Plug-In . SVG Version: 6.00 Build 0)  -->
<svg version="1.1" id="Warstwa_1" xmlns="http://www.w3.org/2000/svg" xmlns:xlink="http://www.w3.org/1999/xlink" x="0px" y="0px"
	 viewBox="0 0 256 256" style="enable-background:new 0 0 256 256;" xml:space="preserve">
<style type="text/css">
	.st0{fill:#1A2D58;}
</style>
<path id="XMLID_1_" class="st0" d="M128,3.2C57.3,3.2,0,60.4,0,131.2c0,56.6,36.6,104.5,87.5,121.4c6.4,1.1,8.8-2.7,8.8-6.1
	c0-3-0.2-13.1-0.2-23.8c-32.2,5.9-40.5-7.8-43-15c-1.4-3.7-7.7-15-13.1-18.1c-4.5-2.4-10.9-8.3-0.2-8.5c10.1-0.2,17.3,9.3,19.7,13.1
	c11.5,19.4,29.9,13.9,37.3,10.6c1.1-8.3,4.5-13.9,8.2-17.1c-28.5-3.2-58.2-14.2-58.2-63.2c0-13.9,5-25.4,13.1-34.4
	c-1.3-3.2-5.8-16.3,1.3-33.9c0,0,10.7-3.4,35.2,13.1c10.2-2.9,21.1-4.3,32-4.3c10.9,0,21.8,1.4,32,4.3
	c24.5-16.6,35.2-13.1,35.2-13.1c7,17.6,2.6,30.7,1.3,33.9c8.2,9,13.1,20.3,13.1,34.4c0,49.1-29.9,60-58.4,63.2
	c4.6,4,8.6,11.7,8.6,23.7c0,17.1-0.2,30.9-0.2,35.2c0,3.4,2.4,7.4,8.8,6.1c50.6-17,87.2-65,87.2-121.4C256,60.4,198.7,3.2,128,3.2z"
	/>
</svg>
