<?xml version="1.0" encoding="utf-8"?>
<!-- Generator: Adobe Illustrator 19.0.0, SVG Export Plug-In . SVG Version: 6.00 Build 0)  -->
<svg version="1.1" id="Warstwa_1" xmlns="http://www.w3.org/2000/svg" xmlns:xlink="http://www.w3.org/1999/xlink" x="0px" y="0px"
	 viewBox="0 0 256 256" style="enable-background:new 0 0 256 256;" xml:space="preserve">
<style type="text/css">
	.st0{fill:#1A2D58;}
</style>
<path id="XMLID_18_" class="st0" d="M197.1,92.5c0.8-1,0.9-2.3,0.4-3.4c-0.5-1.2-1.7-2-3-1.9h-34.6c-2.1,0.1-4,1.1-5.4,2.7
	l-66.1,66.9V3.8c0-0.3,0-0.6,0-0.9C88.1,1,86.5-0.2,84.7,0H58.7c-0.3,0-0.6,0-0.9,0C56,0.3,54.7,2,55,3.8v248.3c0,0.3,0,0.6,0,0.9
	c0.3,1.8,1.9,3.1,3.7,2.8h25.9c0.3,0,0.6,0,0.9,0c1.8-0.3,3.1-1.9,2.8-3.7v-54.5l15.3-14.7l55.2,70.4c1.3,1.7,3.3,2.6,5.4,2.6h33.4
	c1.7,0,2.8-0.5,3-1.5c0.6-1.3,0.3-2.9-0.8-4L127.1,160L197.1,92.5"/>
</svg>
