<?xml version="1.0" encoding="utf-8"?>
<!-- Generator: Adobe Illustrator 19.0.0, SVG Export Plug-In . SVG Version: 6.00 Build 0)  -->
<svg version="1.1" id="Warstwa_1" xmlns="http://www.w3.org/2000/svg" xmlns:xlink="http://www.w3.org/1999/xlink" x="0px" y="0px"
	 viewBox="78 -78 256 256" style="enable-background:new 78 -78 256 256;" xml:space="preserve">
<style type="text/css">
	.st0{fill:#1A2D58;}
</style>
<g id="XMLID_5_">
	<g id="XMLID_8_">
		<g id="XMLID_1_">
			<g>
				<path class="st0" d="M334-49.6v199.1c0,15.7-12.7,28.4-28.4,28.4H106.4C90.7,178,78,165.3,78,149.6V-49.6
					C78-65.3,90.7-78,106.4-78h199.1C321.3-78,334-65.3,334-49.6z M298.4,142.5v-0.1v-78c0-33-18.7-49-44.9-49s-37.2,20.4-37.2,20.4
					V19.2h-36.6v123.2v0.1h36.6v-0.1V77.7c0-0.5,0-1.1,0-1.6c0.5-16.3,8.5-26,23.3-26c12.7,0,19.5,8.1,20.6,22.9
					c0,0.5,0.1,1,0.1,1.6c0,1,0.1,2.1,0.1,3.1v64.7v0.1H298.4z M158.7-19.7c0-1.6-0.2-3.1-0.5-4.6c-1.8-8.9-8.7-15.9-17.6-17.7
					c-1.5-0.3-3-0.5-4.6-0.5c-1.5,0-3.1,0.2-4.5,0.5c-8.1,1.6-14.6,7.6-17,15.5c-0.3,1.1-0.6,2.2-0.8,3.3c-0.2,1.1-0.3,2.3-0.3,3.5
					s0.1,2.3,0.3,3.5c0.2,1.1,0.4,2.2,0.8,3.3c2.7,9,10.7,15.5,20.4,16c0.3,0,0.7,0,1.1,0s0.8,0,1.2,0c10.9-0.5,19.6-8.7,21.2-19.3
					C158.6-17.4,158.7-18.5,158.7-19.7z M155.4,142.5V19.2h-38.2v123.3H155.4z"/>
			</g>
		</g>
	</g>
	<g id="XMLID_9_">
	</g>
</g>
</svg>
